<svg fill="none" height="72" viewBox="0 0 72 72" width="72" xmlns="http://www.w3.org/2000/svg"><path clip-rule="evenodd" d="m62.9231 44.8201v-17.6402c1.8192-.8488 3.0769-2.6701 3.0769-4.7799 0-2.921-2.4108-5.2889-5.3846-5.2889-.8656 0-1.6835.2006-2.4081.5571l-16.8565-9.78361c.0224-.19554.0338-.39431.0338-.5957 0-2.92097-2.4108-5.28889-5.3846-5.28889s-5.3846 2.36792-5.3846 5.28889c0 .20139.0114.40016.0338.5957l-16.8565 9.78361c-.7246-.3565-1.5425-.5571-2.4081-.5571-2.97383 0-5.3846 2.3679-5.3846 5.2889 0 2.1098 1.25773 3.9311 3.07692 4.7799v17.6402c-1.81919.8488-3.07692 2.6701-3.07692 4.7799 0 2.921 2.41077 5.2889 5.3846 5.2889.8656 0 1.6835-.2006 2.4082-.5571l16.8564 9.7836c-.0224.1955-.0338.3943-.0338.5957 0 2.921 2.4108 5.2889 5.3846 5.2889s5.3846-2.3679 5.3846-5.2889c0-.2014-.0114-.4002-.0338-.5957l16.8564-9.7836c.7247.3565 1.5426.5571 2.4082.5571 2.9738 0 5.3846-2.3679 5.3846-5.2889 0-2.1098-1.2577-3.9311-3.0769-4.7799zm-25.3283-32.4781c-.504.1532-1.0396.2358-1.5948.2358s-1.0908-.0826-1.5947-.2358l-19.3434 33.3945c.8739.8028 1.4752 1.8882 1.6528 3.108h38.5706c.1776-1.2198.779-2.3053 1.6529-3.1081zm-5.7922-1.6181-15.7054 9.1154c.4282.7587.672 1.6317.672 2.5607 0 2.6644-2.0059 4.8687-4.6154 5.2353v16.7294c.0496.0069.0989.0146.148.0228zm-15.5516 41.1428c-.0482.0998-.0995.1978-.1538.294l15.774 9.1552c.9877-1.1576 2.4708-1.8937 4.1288-1.8937s3.1411.7361 4.1288 1.8937l15.774-9.1552c-.0543-.0962-.1056-.1942-.1538-.294zm43.4473-7.4792c.049-.0083.0983-.0159.1479-.0228v-16.7294c-2.6095-.3666-4.6154-2.5709-4.6154-5.2353 0-.929.2438-1.802.672-2.5607l-15.7052-9.1153z" fill="#ff04a4" fill-rule="evenodd"/></svg>