<svg fill="none" height="72" viewBox="0 0 72 72" width="72" xmlns="http://www.w3.org/2000/svg"><path d="m13 63c-2.2091 0-4-1.7909-4-4v-46c0-2.2091 1.7909-4 4-4h46c2.2091 0 4 1.7909 4 4v46c0 2.2091-1.7909 4-4 4z" fill="#ffd600"/><path d="m44.307 49.4205c1.038 1.686 2.166 3.3015 4.5555 3.3015 2.007 0 3.06-.9975 3.06-2.3775 0-1.6515-1.089-2.238-3.297-3.1995l-1.2105-.516c-3.4935-1.482-5.817-3.339-5.817-7.2615 0-3.615 2.7675-6.366 7.092-6.366 3.0795 0 5.292 1.0665 6.888 3.8595l-3.771 2.4105c-.8295-1.482-1.7265-2.0655-3.117-2.0655-1.419 0-2.3175.8955-2.3175 2.0655 0 1.446.9 2.031 2.9775 2.9265l1.2105.516c4.1175 1.7535 6.4395 3.5445 6.4395 7.5705 0 4.338-3.426 6.7155-8.025 6.7155-4.4985 0-7.053-2.2575-8.475-5.052zm-17.379.123c.759 1.359 1.9125 2.4045 3.5715 2.4045 1.587 0 2.5005-.627 2.5005-3.0645v-15.8835h4.9995v16.6515c0 5.0505-2.9295 7.3485-7.2075 7.3485-3.8655 0-6.6555-2.619-7.7925-5.052z" fill="#000"/></svg>