<svg fill="none" height="72" viewBox="0 0 72 72" width="72" xmlns="http://www.w3.org/2000/svg"><path clip-rule="evenodd" d="m65.1556 16c1.5709 0 2.8444 1.2351 2.8444 2.7586v34.4828c0 1.5235-1.2735 2.7586-2.8444 2.7586h-58.31116c-1.57094 0-2.84444-1.2351-2.84444-2.7586v-34.4828c0-1.5235 1.2735-2.7586 2.84444-2.7586zm0 2.069h-58.31116c-.36468 0-.66524.2662-.70632.6092l-.00479.0804v34.4828c0 .3537.27452.6452.62819.685l.08292.0046h58.31116c.3646 0 .6652-.2662.7063-.6092l.0048-.0804v-34.4828c0-.3537-.2745-.6452-.6282-.685zm-15.9954 8.8264 9.3862 9.1062-9.3862 9.103-1.8772-1.8206 7.5104-7.2844-7.5104-7.2836zm-26.3204 0 1.8772 1.8206-7.5104 7.2836 7.5104 7.2844-1.8772 1.8206-9.3862-9.103zm6.5232 7.1736c1.0996 0 1.9911.8645 1.9911 1.931s-.8915 1.931-1.9911 1.931c-1.0997 0-1.9911-.8645-1.9911-1.931s.8914-1.931 1.9911-1.931zm6.637 0c1.0997 0 1.9911.8645 1.9911 1.931s-.8914 1.931-1.9911 1.931-1.9911-.8645-1.9911-1.931.8914-1.931 1.9911-1.931zm6.637 0c1.0997 0 1.9912.8645 1.9912 1.931s-.8915 1.931-1.9912 1.931c-1.0996 0-1.9911-.8645-1.9911-1.931s.8915-1.931 1.9911-1.931z" fill="#00abd0" fill-rule="evenodd"/></svg>