<svg fill="none" height="72" viewBox="0 0 72 72" width="72" xmlns="http://www.w3.org/2000/svg"><path d="m17.8292 51.7282h-2.701c-.0955-4.6032-.3585-8.9309-.7886-12.9861h-.024l-4.1123 12.9861h-2.05646l-4.08779-12.9861h-.02348c-.30325 3.8934-.49427 8.2221-.57361 12.9861h-2.46196c.15867-5.7932.55743-11.2243 1.19471-16.294h3.34768l3.89623 11.9727h.02401l3.92027-11.9727h3.2031c.7015 5.9381 1.1159 11.3698 1.2432 16.294zm11.7138-12.0217c-1.0997 6.0256-2.5507 10.4039-4.3514 13.1368-1.4029 2.1038-2.94 3.1567-4.6139 3.1567-.4462 0-.9969-.136-1.6493-.4058v-1.4529c.3189.0464.6931.0727 1.1232.0727.7819 0 1.4103-.2171 1.8894-.6524.5731-.5301.8596-1.1262.8596-1.7854 0-.4522-.2233-1.3765-.6691-2.7762l-2.964-9.294h2.6535l2.1274 6.951c.4781 1.5783.6774 2.6803.5976 3.3079 1.1634-3.1372 1.976-6.5579 2.439-10.2594h2.558z" fill="#5d87a1"/><path d="m65.4964 51.7284h-7.6724v-16.2943h2.581v14.2885h5.0914zm-9.6808.3936-2.9666-1.4782c.263-.2182.5146-.4543.7411-.7278 1.261-1.4956 1.8899-3.7074 1.8899-6.637 0-5.3906-2.095-8.0873-6.2866-8.0873-2.0554 0-3.6588.6841-4.8055 2.0527-1.2599 1.4966-1.8889 3.7005-1.8889 6.6143 0 2.8642.5575 4.9654 1.6728 6.2982 1.0204 1.2073 2.5585 1.8118 4.6155 1.8118.7672 0 1.4713-.0949 2.1128-.2862l3.8623 2.2703zm-9.6103-3.6542c-.6535-1.0613-.9802-2.7656-.9802-5.1155 0-4.1027 1.2344-6.1564 3.7057-6.1564 1.2918 0 2.2386.4911 2.844 1.4714.6524 1.0629.9807 2.7519.9807 5.0691 0 4.1365-1.2354 6.2049-3.7052 6.2049-1.2923.0005-2.2391-.489-2.845-1.4735zm-4.831-1.2558c0 1.3818-.5021 2.5154-1.5053 3.4033-1.0042.8844-2.3508 1.3276-4.0382 1.3276-1.5783 0-3.1086-.5091-4.5898-1.522l.6936-1.3992c1.2746.6445 2.4286.9649 3.4646.9649.9724 0 1.7323-.2176 2.2835-.6492.5506-.4332.8789-1.0408.8789-1.8092 0-.9681-.6686-1.7955-1.8951-2.4885-1.1311-.6271-3.3931-1.9383-3.3931-1.9383-1.226-.9022-1.8398-1.8708-1.8398-3.4666 0-1.3206.4577-2.3867 1.3737-3.1978.917-.8142 2.1002-1.22 3.5507-1.22 1.4979 0 2.8597.4053 4.0862 1.2074l-.6221 1.3997c-1.0491-.4501-2.0846-.6751-3.1061-.6751-.8272 0-1.4661.2008-1.9102.6039-.4479.4016-.724.9154-.724 1.5457 0 .9634.6827 1.8013 1.9427 2.508 1.1461.6282 3.4646 1.962 3.4646 1.962 1.2573.9006 1.8852 1.8603 1.8852 3.4434z" fill="#f8981d"/><path d="m68.7364 29.9766c-1.5606-.04-2.7689.1186-3.783.5518-.2928.1181-.7584.1181-.7991.4917.1582.1581.1764.4132.3137.6313.2338.3937.6415.9233 1.0136 1.1995.4087.3162.8189.6292 1.249.9048.7583.4738 1.618.7494 2.357 1.2216.4306.2745.8586.6297 1.2897.9254.2119.1575.3476.4131.6227.5117v-.0601c-.1378-.1771-.1769-.4332-.3121-.6303l-.5856-.5702c-.5658-.7673-1.2689-1.4371-2.0272-1.9873-.6243-.4342-1.9896-1.0244-2.2428-1.7506l-.0396-.0401c.429-.0406.9379-.1976 1.3455-.3183.6634-.1765 1.2683-.1365 1.9489-.313.3132-.0791.6237-.1782.9379-.2756v-.1776c-.3528-.3547-.6044-.8258-.9755-1.161-.9927-.8658-2.0867-1.7127-3.2172-2.4215-.6054-.3947-1.3841-.6488-2.0287-.9845-.2323-.1185-.6237-.177-.7605-.3741-.3497-.4332-.5464-1.0034-.8001-1.5162-.5637-1.0819-1.1112-2.2824-1.5976-3.4265-.3518-.7673-.5658-1.5335-.9949-2.2434-2.0094-3.3464-4.1916-5.3732-7.5456-7.3626-.7207-.4142-1.5783-.5908-2.4943-.80787l-1.463-.078c-.3121-.13807-.6247-.51276-.8972-.68983-1.1127-.70828-3.9776-2.24341-4.796-.2166-.5272 1.2811.7798 2.5406 1.2286 3.1904.3315.4511.761.9644.9927 1.4766.1373.3347.1759.6899.3132 1.0435.3121.8664.6039 1.8302 1.0141 2.6386.214.4121.4473.8453.7208 1.2184.1566.2182.429.3147.4885.6704-.2719.3921-.2933.9839-.4493 1.4761-.7015 2.2244-.4275 4.9801.5668 6.6148.311.4922 1.0532 1.5757 2.046 1.1604.8789-.3541.6842-1.4761.9368-2.46.058-.2376.0199-.3936.1368-.5496v.0385c.2719.5507.5464 1.0813.7985 1.6336.605.9639 1.6582 1.9683 2.5356 2.636.4671.3563.8372.9655 1.4223 1.1831v-.059h-.0387c-.1184-.1765-.2917-.2556-.4473-.3926-.3517-.3547-.7411-.7878-1.0141-1.181-.8173-1.103-1.5407-2.324-2.1827-3.5841-.3142-.6113-.5851-1.2795-.8382-1.8898-.118-.2355-.118-.5907-.3137-.7093-.2933.4327-.7208.8074-.9348 1.3375-.3711.848-.4097 1.8909-.5475 2.9754l-.0767.038c-.6211-.1576-.8372-.8063-1.0731-1.357-.5841-1.3987-.6822-3.6437-.1754-5.2573.1357-.4127.7229-1.7122.4885-2.1053-.1174-.3768-.5078-.5913-.7218-.888-.2516-.3731-.5272-.8453-.7025-1.2595-.4677-1.102-.7031-2.323-1.2067-3.4244-.2354-.5133-.6441-1.0445-.975-1.5172-.3716-.5313-.7803-.9054-1.0741-1.5352-.0971-.21657-.2333-.57071-.0773-.80628.0381-.15809.1174-.21712.273-.25664.2526-.21554.9744.05849 1.2276.17707.7228.29511 1.3272.57073 1.9306.98385.273.1977.5658.5718.916.6704h.4102c.6227.137 1.3247.0379 1.9108.216 1.0329.3352 1.9688.8269 2.808 1.3576 2.5539 1.6352 4.6599 3.9587 6.0816 6.7339.2333.4521.3325.8664.5454 1.338.4108.9655.9186 1.9499 1.3263 2.8948.4097.9249.8001 1.8692 1.3852 2.6376.2917.4131 1.464.6297 1.9896.8463.3888.1766.9943.3336 1.345.5502.6634.4126 1.3242.8864 1.9479 1.3402.3105.236 1.2865.7283 1.3445 1.1224zm-19.8888-17.1082c-.2692-.0029-.5376.0305-.7981.099v.0396h.0376c.1571.3146.4301.5328.6248.8073.1571.3157.2933.6287.4473.9439l.0375-.039c.2751-.1966.4118-.5117.4118-.9845-.1184-.1391-.1367-.275-.2354-.4131-.1148-.1971-.3679-.2951-.5255-.4532z" fill="#5d87a1"/><path d="m70.5932 51.7257h.404v-1.9963h-.6059l-.4943 1.3623-.537-1.3623h-.5835v1.9963h.3815v-1.5188h.0214l.5626 1.5188h.2907l.5605-1.5188zm-3.2541 0h.4274v-1.658h.5595v-.3388h-1.5699v.3388h.5819z" fill="#f8981d"/></svg>