<svg width="72" height="72" viewBox="0 0 72 72" fill="none" xmlns="http://www.w3.org/2000/svg">
<path fill-rule="evenodd" clip-rule="evenodd" d="M22.0981 42.8655C19.4774 40.1313 18.2004 36.4533 18.6797 33.027C19.1427 29.721 18.8812 26.4849 18.7398 24.7449C18.6927 24.165 18.6618 23.7328 18.6635 23.494C18.6635 23.4856 18.6648 23.4778 18.6662 23.4699C18.667 23.4656 18.6678 23.4612 18.6683 23.4567C18.6683 23.4534 18.6675 23.4506 18.6667 23.4477C18.6659 23.4449 18.6651 23.442 18.6651 23.4388C18.8617 18.5309 20.7545 10.7882 25.9649 6.18579C23.4271 5.18667 19.2938 3.86914 15.4141 4.01048C9.33441 4.23142 3.44973 8.43583 4.04112 20.2562C4.26371 24.6913 9.27592 51.2905 16.1289 51.1232C17.1086 51.0988 18.1257 50.4701 19.1704 49.2127C20.8227 47.2258 22.4279 45.4242 23.5701 44.17C23.0583 43.7817 22.5644 43.3528 22.0981 42.8655ZM57.6937 19.8192C57.7181 20.0694 57.697 20.2839 57.658 20.4821C57.7084 21.9767 57.5475 23.4274 57.3834 24.831C57.2632 25.8643 57.1397 26.9316 57.1056 28.0022C57.0715 29.0476 57.2186 30.0801 57.3742 31.1722L57.3753 31.1799C57.7408 33.7435 58.121 36.6368 56.1324 40.0127C56.4979 40.4936 56.8196 40.9403 57.0763 41.3725C64.5662 29.2288 67.5849 14.7928 64.7043 11.1131C60.3452 5.54408 54.3111 3.9325 49.5312 4.01048C48.0349 4.03485 46.675 4.2363 45.5133 4.48811C53.7603 8.48456 57.4338 17.0493 57.6937 19.8192ZM64.1552 44.7402C59.8253 45.6337 57.7425 45.1577 56.7319 44.5355C56.5737 44.6494 56.4154 44.7464 56.2677 44.8369L56.2675 44.837L56.2559 44.8442C55.6515 45.2097 54.6945 45.7913 54.4606 49.3638C54.518 49.3748 54.5725 49.3838 54.6274 49.3929L54.6277 49.393L54.6279 49.393C54.7018 49.4052 54.7765 49.4176 54.8602 49.4352L55.567 49.4986C57.7116 49.5961 60.5207 48.995 62.1682 48.2298C65.7181 46.5825 67.6532 44.0189 64.1552 44.7402ZM33.3232 48.0674C33.2631 47.5832 33.0015 47.1917 32.5238 46.8782L32.3483 46.8018L32.3431 46.7995C31.7579 46.5418 31.0942 46.2495 30.0364 46.2495H30.0299C29.8236 46.2657 29.6188 46.2803 29.4125 46.2803C29.3634 46.2803 29.3148 46.2765 29.2661 46.2726L29.266 46.2726H29.2659C29.231 46.2698 29.196 46.2671 29.1607 46.2657C28.3906 46.8587 27.2955 47.3168 24.5855 47.874C19.7439 49.1071 22.6017 50.5627 24.4588 50.7885C26.2557 51.2385 30.5271 51.786 33.3638 49.4742C33.3557 48.7464 33.3427 48.2461 33.3232 48.0674ZM51.1576 51.1231C51.1576 50.9016 51.1662 50.7045 51.1749 50.507C51.1792 50.4076 51.1836 50.308 51.1869 50.2052C51.1706 49.7975 51.1576 49.4986 51.1576 49.4986C51.1576 49.4986 51.1635 49.4941 51.1743 49.4866C51.1831 49.4805 51.195 49.4723 51.2096 49.4628C51.4517 45.1203 52.6491 43.447 53.931 42.4934C53.7873 42.2935 53.6257 42.0811 53.4674 41.8729L53.4674 41.8728L53.3526 41.7217L53.3166 41.6745C52.7818 40.9728 52.1214 40.1063 51.4159 39.0022L51.2827 38.7455C51.1913 38.5217 50.991 38.1617 50.731 37.6941C50.6814 37.6049 50.6296 37.5118 50.576 37.415L50.5743 37.412C48.6517 33.9343 44.6547 26.7045 47.3915 22.1374C48.5906 20.136 50.8392 18.9825 54.087 18.6982C52.7596 14.9243 47.7864 5.82183 36.5109 5.63501H36.5012C26.6863 5.4758 23.4613 14.3947 22.4117 19.7233C23.8577 19.1109 25.5084 18.7388 27.0194 18.7388H27.0893C30.8098 18.7665 33.3687 20.7517 34.1128 24.1877C34.6571 26.709 34.9187 28.9152 34.9122 30.9345C34.896 35.3517 34.0056 37.6749 33.2193 39.7251L32.9691 40.3879C32.7676 40.9305 32.5548 41.4358 32.3533 41.9102C32.1486 42.3943 31.9682 42.8248 31.8366 43.2131C32.623 43.3918 33.2404 43.6436 33.6644 43.8304L33.9098 43.9376C33.9861 43.9701 34.0625 44.0075 34.1323 44.0497C35.5101 44.888 36.3679 46.1763 36.5515 47.6774C36.6506 48.4864 36.6344 54.0019 36.6003 58.8139C36.7416 60.9014 37.0958 62.6544 37.5637 63.9248C38.2282 65.7346 39.8887 69.19 43.078 68.9918C45.3038 68.8537 47.4435 67.4988 48.8635 65.7118C50.3875 63.7932 50.9497 61.6715 51.1609 59.2817V51.1231H51.1576ZM29.0929 26.7299C29.9199 26.8631 30.6688 26.4342 31.1433 25.9436C31.4861 27.7728 31.6664 29.451 31.6599 30.9213C31.6453 34.7439 30.9028 36.6853 30.1831 38.5616L29.9198 39.2553C29.7363 39.7508 29.5413 40.209 29.3577 40.6395L29.3538 40.6486C29.0238 41.4268 28.7039 42.181 28.5242 42.9545C27.1075 42.7141 25.6713 41.9018 24.4413 40.6184C22.5339 38.6266 21.5575 35.8908 21.8954 33.4783C22.4072 29.8182 22.1278 26.3465 21.9767 24.4831C21.9687 24.3813 21.9607 24.2854 21.9533 24.1957C21.941 24.0477 21.9301 23.9169 21.9231 23.8056C22.4657 23.0697 25.1643 21.7408 27.707 22.0235C29.1416 22.181 30.0823 22.826 30.6022 23.9437C30.2448 23.7813 29.8207 23.6497 29.3545 23.5733C28.0108 23.3556 26.8622 23.6724 26.7907 24.28C26.7159 24.8892 27.7476 26.5122 29.0929 26.7299ZM53.8582 27.8979C53.816 29.2285 53.9898 30.455 54.1588 31.6393C54.422 33.4848 54.6576 35.1419 54.0191 36.9598C53.8599 36.6511 53.6681 36.2921 53.4196 35.8421C52.2563 33.7383 49.8923 29.451 49.7104 26.2457C50.1312 26.5365 50.6787 26.7331 51.2522 26.7331C51.3546 26.7331 51.4602 26.7266 51.5642 26.7136C52.1409 26.6389 52.7079 26.3578 53.158 25.9208C53.3773 25.708 53.8777 25.1524 53.7884 24.5627C53.6665 23.7569 52.6088 23.3394 51.1596 23.5278C50.8184 23.5717 50.5097 23.6448 50.2368 23.7374C50.8964 22.7155 52.2871 22.1112 54.3814 21.9374C54.3359 22.7578 54.2579 23.5896 54.1572 24.4555L54.1553 24.472C54.0275 25.5667 53.8954 26.6985 53.8582 27.8979Z" fill="#2482DE"/>
</svg>
