<svg version="1.1" id="Layer_1" xmlns="http://www.w3.org/2000/svg" xmlns:xlink="http://www.w3.org/1999/xlink" x="0px" y="0px"
	 width="100%" viewBox="0 0 480 480" enable-background="new 0 0 480 480" xml:space="preserve">
<path fill="#5539FD" opacity="1.000000" stroke="none" 
	d="
M224.000000,481.000000 
	C149.352646,481.000000 75.205284,481.000000 1.028964,481.000000 
	C1.028964,321.060974 1.028964,161.121933 1.028964,1.091449 
	C160.897339,1.091449 320.794739,1.091449 480.846069,1.091449 
	C480.846069,160.999893 480.846069,320.999939 480.846069,481.000000 
	C395.455292,481.000000 309.977661,481.000000 224.000000,481.000000 
M351.560486,132.092178 
	C351.370026,131.818726 351.179565,131.545273 350.432648,130.769791 
	C348.989929,130.695663 347.479340,130.304871 346.115234,130.597351 
	C334.903992,133.001175 323.735657,135.605026 312.524567,138.009583 
	C287.221039,143.436661 261.904449,148.802979 236.585861,154.159470 
	C204.726852,160.899673 172.850403,167.558228 141.012085,174.394516 
	C137.593170,175.128616 134.377777,176.810516 130.901749,178.173325 
	C130.901749,178.173325 130.585770,178.391739 130.307526,179.372726 
	C130.200989,180.363510 130.000931,181.354355 130.001328,182.345093 
	C130.024200,238.067429 130.063797,293.789764 130.294876,350.084320 
	C131.401276,350.702209 132.641876,352.016815 133.593948,351.833496 
	C147.926941,349.072968 162.246536,346.229858 176.518539,343.169586 
	C189.006775,340.491821 201.442703,337.565704 213.878464,334.650024 
	C218.532593,333.558838 223.120972,332.187256 228.622635,330.899536 
	C233.373856,330.135864 238.167831,329.572968 242.868546,328.572083 
	C259.115814,325.112701 275.316742,321.435974 291.561432,317.964172 
	C309.572144,314.114960 327.632629,310.494934 345.611908,306.506897 
	C347.873718,306.005219 349.773987,303.873627 351.927795,301.472565 
	C351.951599,249.763184 351.983643,198.053787 351.985138,146.344406 
	C351.985291,141.693756 351.788177,137.043121 351.560486,132.092178 
z"/>
<path fill="#6350CE" opacity="1.000000" stroke="none" 
	d="
M131.067978,178.052750 
	C134.377777,176.810516 137.593170,175.128616 141.012085,174.394516 
	C172.850403,167.558228 204.726852,160.899673 236.585861,154.159470 
	C261.904449,148.802979 287.221039,143.436661 312.524567,138.009583 
	C323.735657,135.605026 334.903992,133.001175 346.115234,130.597351 
	C347.479340,130.304871 348.989929,130.695663 350.523621,131.098602 
	C350.360779,131.545731 350.155548,131.720947 349.604492,131.973389 
	C347.895844,132.208908 346.569427,132.367798 345.268982,132.647461 
	C291.885468,144.127563 238.499481,155.596085 185.125565,167.120682 
	C167.239059,170.982758 149.384171,174.991333 131.420380,178.704132 
	C131.325912,178.475327 131.067978,178.052750 131.067978,178.052750 
z"/>
<path fill="#7F70D7" opacity="1.000000" stroke="none" 
	d="
M351.841766,302.497253 
	C349.773987,303.873627 347.873718,306.005219 345.611908,306.506897 
	C327.632629,310.494934 309.572144,314.114960 291.561432,317.964172 
	C275.316742,321.435974 259.115814,325.112701 242.868546,328.572083 
	C238.167831,329.572968 233.373856,330.135864 228.055511,330.804260 
	C227.320145,330.547119 227.158905,330.378540 227.370346,330.068298 
	C266.954834,321.596375 306.178864,313.283905 345.376282,304.847687 
	C347.263031,304.441650 348.915100,302.945160 350.973083,302.080322 
	C351.460388,302.301819 351.651062,302.399536 351.841766,302.497253 
z"/>
<path fill="#8171DA" opacity="1.000000" stroke="none" 
	d="
M227.004639,330.203278 
	C227.158905,330.378540 227.320145,330.547119 227.613861,330.826233 
	C223.120972,332.187256 218.532593,333.558838 213.878464,334.650024 
	C201.442703,337.565704 189.006775,340.491821 176.518539,343.169586 
	C162.246536,346.229858 147.926941,349.072968 133.593948,351.833496 
	C132.641876,352.016815 131.401276,350.702209 130.501114,349.649048 
	C130.913773,349.126831 131.120193,349.039917 131.597916,349.164154 
	C133.637039,349.270264 135.450653,349.384796 137.165939,349.027466 
	C167.119324,342.787109 197.060669,336.488892 227.004639,330.203278 
z"/>
<path fill="#4A33C2" opacity="1.000000" stroke="none" 
	d="
M131.326630,348.952972 
	C131.120193,349.039917 130.913773,349.126831 130.404541,349.362915 
	C130.063797,293.789764 130.024200,238.067429 130.001328,182.345093 
	C130.000931,181.354355 130.200989,180.363510 130.645660,179.036102 
	C131.148468,178.737701 131.313141,178.775909 131.474030,179.288162 
	C131.470078,201.556519 131.486771,223.350861 131.465851,245.145172 
	C131.432648,279.747772 131.374329,314.350372 131.326630,348.952972 
z"/>
<path fill="#4A33C2" opacity="1.000000" stroke="none" 
	d="
M351.884766,301.984894 
	C351.651062,302.399536 351.460388,302.301819 350.914093,301.618042 
	C350.548279,273.701599 350.514038,246.371277 350.534393,219.040970 
	C350.555756,190.379715 350.629456,161.718475 350.949463,132.919098 
	C351.373322,132.651459 351.527985,132.521973 351.682678,132.392471 
	C351.788177,137.043121 351.985291,141.693756 351.985138,146.344406 
	C351.983643,198.053787 351.951599,249.763184 351.884766,301.984894 
z"/>
<path fill="#7F70D7" opacity="1.000000" stroke="none" 
	d="
M351.621582,132.242325 
	C351.527985,132.521973 351.373322,132.651459 350.774384,132.779755 
	C350.163330,132.526016 350.052917,132.250854 349.998871,131.953094 
	C350.155548,131.720947 350.360779,131.545731 350.801819,131.349609 
	C351.179565,131.545273 351.370026,131.818726 351.621582,132.242325 
z"/>
<path fill="#8171DA" opacity="1.000000" stroke="none" 
	d="
M131.477798,178.814133 
	C131.313141,178.775909 131.148468,178.737701 130.784790,178.545609 
	C130.585770,178.391739 130.901749,178.173325 130.984863,178.113037 
	C131.067978,178.052750 131.325912,178.475327 131.377594,178.683472 
	C131.429291,178.891602 131.477798,178.814133 131.477798,178.814133 
z"/>
<path fill="#FEFEFF" opacity="1.000000" stroke="none" 
	d="
M131.474030,179.288162 
	C131.477798,178.814133 131.429291,178.891602 131.472061,178.912262 
	C149.384171,174.991333 167.239059,170.982758 185.125565,167.120682 
	C238.499481,155.596085 291.885468,144.127563 345.268982,132.647461 
	C346.569427,132.367798 347.895844,132.208908 349.604492,131.973389 
	C350.052917,132.250854 350.163330,132.526016 350.505188,132.917892 
	C350.629456,161.718475 350.555756,190.379715 350.534393,219.040970 
	C350.514038,246.371277 350.548279,273.701599 350.617493,301.494202 
	C348.915100,302.945160 347.263031,304.441650 345.376282,304.847687 
	C306.178864,313.283905 266.954834,321.596375 227.370346,330.068298 
	C197.060669,336.488892 167.119324,342.787109 137.165939,349.027466 
	C135.450653,349.384796 133.637039,349.270264 131.597916,349.164154 
	C131.374329,314.350372 131.432648,279.747772 131.465851,245.145172 
	C131.486771,223.350861 131.470078,201.556519 131.474030,179.288162 
z"/>
</svg>